<svg id="Layer_1" data-name="Layer 1" xmlns="http://www.w3.org/2000/svg" width="800" height="263" viewBox="0 0 800 263"><defs><style>.cls-1{fill:none;}</style></defs><title>kavak-logo-freelogovectors.net_</title><path d="M723.81,302.76,672.15,400l51.66,97.24h45.34L718.32,400l50.83-97.24Zm-107.38,0v162l-84.59-162L430.24,497.24h44.69l57-109,24.16,46.29H531.9L515,466.93h58l15.81,30.31h69V302.76Zm-167.87,0-57,109-56.91-109H290L391.59,497.24,493.18,302.76Zm-197.16,0L166.69,464.91,132.74,400l50.83-97.24H138.23L86.57,400l51.66,97.24h56.32l15.8-30.31h58l-16.94-32.39H227.3l24.16-46.29,56.85,109H353L251.4,302.76ZM30.85,497.24H72.19V302.76H30.85Z" transform="translate(0 -268.5)"/><rect class="cls-1" width="800" height="263"/></svg>